# xmcd CD database file
#
# Track frame offsets:
#	187
#	16650
#	38737
#
# Disc length: 733 seconds
#
# Revision: 0
# Processed by: cddbd v1.5.1PL0 Copyright (c) Steve Scherf et al.
# Submitted via: CDex 1.51
#
DISCID=1402db03
DTITLE=久松史奈 - Wedding Kiss
DYEAR=1995
DGENRE=J-Pop
TTITLE0=Wedding Kiss
TTITLE1=光と影
TTITLE2=Wedding Kiss(オリジナルカラオケ)
EXTD=YEAR: 1995
EXTT0=
EXTT1=
EXTT2=
PLAYORDER=
